<?xml version="1.0" standalone="no"?><!DOCTYPE svg PUBLIC "-//W3C//DTD SVG 1.1//EN" "http://www.w3.org/Graphics/SVG/1.1/DTD/svg11.dtd"><svg t="1572249129251" class="icon" viewBox="0 0 1024 1024" version="1.1" xmlns="http://www.w3.org/2000/svg" p-id="2954" xmlns:xlink="http://www.w3.org/1999/xlink" width="200" height="200"><defs><style type="text/css"></style></defs><path d="M96 896h832c17.673 0 32 14.327 32 32 0 17.673-14.327 32-32 32H96c-17.673 0-32-14.327-32-32 0-17.673 14.327-32 32-32z m448.906-132.192l276.45-276.45c12.497-12.496 32.758-12.496 45.255 0 12.497 12.497 12.497 32.759 0 45.255L535.597 863.627c-12.497 12.497-32.758 12.497-45.255 0L148.546 524.483c-12.497-12.496-12.497-32.758 0-45.254 12.496-12.497 32.758-12.497 45.254 0l287.106 284.453 0.032-667.427c0-17.673 14.327-32 32-32 17.673 0 32 14.327 32 32l-0.032 667.553z" p-id="2955"></path></svg>