<?xml version="1.0" standalone="no"?><!DOCTYPE svg PUBLIC "-//W3C//DTD SVG 1.1//EN" "http://www.w3.org/Graphics/SVG/1.1/DTD/svg11.dtd"><svg t="1572249148339" class="icon" viewBox="0 0 1024 1024" version="1.1" xmlns="http://www.w3.org/2000/svg" p-id="3078" xmlns:xlink="http://www.w3.org/1999/xlink" width="200" height="200"><defs><style type="text/css"></style></defs><path d="M958.615 363.962c0-63.861-52.785-115.8-117.674-115.8H579.425l134.331-132.205c11.903-11.683 11.903-30.57 0-42.254-11.862-11.683-31.03-11.683-42.933 0L511.034 230.95 353.156 75.584c-11.864-11.683-31.07-11.683-42.933 0a29.535 29.535 0 0 0 0 42.258l132.44 130.35H183.036c-64.886 0-117.65 51.939-117.65 115.801 0 57.016 42.174 104.262 97.408 113.796v391.62c0 49.43 36.982 89.651 82.423 89.651h533.605c45.42 0 82.423-40.221 82.423-89.65V477.76c55.173-9.506 97.37-56.751 97.37-113.798z m-832.545 0c0-30.901 25.558-56.033 56.947-56.033h298.598v112.065H183.017c-31.389 0-56.947-25.132-56.947-56.032z m652.711 535.332H245.195c-11.564 0-21.694-13.985-21.694-29.885V479.76h258.114v167.287c0 16.527 13.596 29.884 30.354 29.884 16.78 0 30.375-13.357 30.375-29.884V479.759h258.134v389.65c0 15.9-10.151 29.885-21.697 29.885z m62.16-479.3H542.343V307.929h298.598c31.41 0 56.945 25.133 56.945 56.033 0 30.9-25.535 56.032-56.945 56.032z" p-id="3079"></path></svg>