<?xml version="1.0" standalone="no"?><!DOCTYPE svg PUBLIC "-//W3C//DTD SVG 1.1//EN" "http://www.w3.org/Graphics/SVG/1.1/DTD/svg11.dtd"><svg t="1572256774693" class="icon" viewBox="0 0 1024 1024" version="1.1" xmlns="http://www.w3.org/2000/svg" p-id="8215" xmlns:xlink="http://www.w3.org/1999/xlink" width="200" height="200"><defs><style type="text/css"></style></defs><path d="M990.208 425.472l-142.336-299.008c-16.384-34.304-49.664-55.296-87.552-55.296H266.24c-36.864 0-71.168 21.504-87.552 55.296L36.352 425.472c-16.896 35.84-10.752 77.824 15.872 107.008l388.608 427.52c18.432 20.48 44.544 32.256 72.192 32.256s53.76-11.776 72.192-32.256l389.12-427.52c26.624-29.184 33.28-71.168 15.872-107.008z m-69.12 58.88l-389.12 428.032-0.512 0.512c-6.144 7.168-14.336 8.192-18.432 8.192s-12.288-1.024-18.944-8.704l-389.12-428.032c-7.168-7.68-8.704-18.432-4.096-28.16l142.336-298.496c4.608-8.704 13.312-14.848 23.04-14.848h494.08c9.728 0 18.944 5.632 23.04 14.336l142.336 299.008c4.096 9.216 2.56 20.48-4.608 28.16z" fill="#333333" p-id="8216"></path><path d="M753.152 453.12l-224.256 224.256-219.136-218.624c-13.824-13.824-36.864-13.824-50.688 0s-13.824 36.864 0 50.688L503.296 752.64c7.168 7.168 16.384 10.24 25.088 10.24s18.432-3.584 25.6-10.24l1.024-1.024c2.048-1.536 4.096-3.072 5.632-4.608L803.84 503.296c13.824-13.824 13.824-36.864 0-50.688s-36.352-13.824-50.688 0.512z" fill="#333333" p-id="8217"></path></svg>