<?xml version="1.0" standalone="no"?><!DOCTYPE svg PUBLIC "-//W3C//DTD SVG 1.1//EN" "http://www.w3.org/Graphics/SVG/1.1/DTD/svg11.dtd"><svg t="1572250174340" class="icon" viewBox="0 0 1024 1024" version="1.1" xmlns="http://www.w3.org/2000/svg" p-id="3725" xmlns:xlink="http://www.w3.org/1999/xlink" width="200" height="200"><defs><style type="text/css"></style></defs><path d="M722.051282 0 301.948718 0C258.625641 0 223.179487 35.446154 223.179487 78.769231L223.179487 945.230769C223.179487 988.553846 258.625641 1024 301.948718 1024L722.051282 1024C765.374359 1024 800.820513 988.553846 800.820513 945.230769L800.820513 78.769231C800.820513 35.446154 765.374359 0 722.051282 0ZM748.307692 945.230769C748.307692 959.409231 736.229744 971.487179 722.051282 971.487179L301.948718 971.487179C287.770256 971.487179 275.692308 959.409231 275.692308 945.230769L275.692308 892.717949 748.307692 892.717949 748.307692 945.230769ZM748.307692 840.205128 275.692308 840.205128 275.692308 183.794872 748.307692 183.794872 748.307692 840.205128ZM748.307692 131.282051 275.692308 131.282051 275.692308 78.769231C275.692308 64.590769 287.770256 52.512821 301.948718 52.512821L722.051282 52.512821C736.229744 52.512821 748.307692 64.590769 748.307692 78.769231L748.307692 131.282051Z" p-id="3726"></path></svg>