<?xml version="1.0" standalone="no"?><!DOCTYPE svg PUBLIC "-//W3C//DTD SVG 1.1//EN" "http://www.w3.org/Graphics/SVG/1.1/DTD/svg11.dtd"><svg t="1572249104964" class="icon" viewBox="0 0 1109 1024" version="1.1" xmlns="http://www.w3.org/2000/svg" p-id="2704" xmlns:xlink="http://www.w3.org/1999/xlink" width="216.6015625" height="200"><defs><style type="text/css"></style></defs><path d="M1028.4302876 848.07974638a31.79867519 31.79867519 0 0 1-21.56160146 8.96212706h-81.10912062v75.7093456c-0.03749854 16.0868294-14.06191377 29.2112833-31.27369745 29.24878096h-0.03749854c-17.21178281-0.03749854-31.23619893-13.16195156-31.23619805-29.24878096v-75.7093456h-80.88413026a32.43614854 32.43614854 0 0 1-22.12407774-8.54964404 28.38631729 28.38631729 0 0 1-9.14961885-20.69913779c0-16.12432792 14.02441523-29.24878096 31.23619805-29.24878096h80.9216288v-75.70934561c0-16.12432792 14.02441523-29.24878096 31.23619805-29.24878184 17.24928135 0 31.31119512 13.12445303 31.31119599 29.24878184v75.70934561h80.62164054c16.98679248 0.48748008 30.44873144 13.08695449 30.78621738 28.64880615a27.93633574 27.93633574 0 0 1-8.73713584 20.88662958z m-211.94116963-218.6158913a32.2861544 32.2861544 0 0 1-21.56160146-8.02466543l-1.57493409-1.27494668a431.94450323 431.94450323 0 0 0-251.05203984-79.27169766c-230.01541612 0-417.17011904 175.11770391-417.17011904 390.39623438-0.07499708 16.199325-14.17440937 29.32377802-31.46118927 29.32377802-17.28677988 0-31.42369073-13.16195156-31.46118925-29.39877509 0.03749854-92.65863955 30.03624844-181.52993672 86.65888975-257.05178965 55.38519229-73.79692558 132.03199863-129.81959122 221.76575947-162.03074941l28.76130175-10.34956846-23.39902441-18.78671778c-56.84763164-45.63559863-89.47127197-111.82034092-89.47127285-181.6049329C286.52369873 169.39552344 401.26891836 62.03749678 542.30054258 62.03749678c141.06912276 0 255.81434151 107.35802666 255.8143415 239.35252763 0 69.78459199-32.62364033 135.96933516-89.50877139 181.60493291l-23.39902441 18.82421631 28.79879941 10.31206992c40.12332802 14.36190205 78.2967375 33.97358408 113.50777149 58.27257247l8.54964316 6.56222607a28.68630469 28.68630469 0 0 1 11.88700488 23.06153935c0 16.199325-14.0994123 29.3987751-31.46118925 29.43627364z m-81.2966124-328.07383066c0-99.52085391-86.54639414-180.47998037-192.89196299-180.47998038-106.30807031 0-192.85446445 80.95912646-192.85446534 180.47998038s86.54639414 180.44248184 192.85446534 180.44248183c106.34556885 0 192.89196299-80.92162881 192.89196299-180.44248183z" p-id="2705"></path></svg>