<?xml version="1.0" standalone="no"?><!DOCTYPE svg PUBLIC "-//W3C//DTD SVG 1.1//EN" "http://www.w3.org/Graphics/SVG/1.1/DTD/svg11.dtd"><svg class="icon" width="200px" height="200.00px" viewBox="0 0 1024 1024" version="1.1" xmlns="http://www.w3.org/2000/svg"><path d="M780.756023 786.209222H234.538711c-33.717939 0-62.219063-24.139793-67.771523-57.396221L65.763796 123.497709c-3.120061-18.7132 9.511631-36.418444 28.233018-39.539529 18.871813-3.078105 36.418444 9.53619 39.539528 28.233018l24.25645 145.365762h732.153073c21.673625 0 41.618886 9.897418 54.737672 27.158547 13.101389 17.261129 17.278525 39.128159 11.457959 59.996442L848.292186 731.975017c-6.977925 31.512714-35.143405 54.234205-67.536163 54.234205zM169.267125 326.267878l65.272609 391.230426H780.756023c0.167822-0.847298 0.821715-2.080382 1.057076-2.918469l108.132766-388.311957H169.267125z" fill="#444444" /><path d="M712.369493 888.970654m-51.5337 0a51.5337 51.5337 0 1 0 103.067401 0 51.5337 51.5337 0 1 0-103.067401 0Z" fill="#444444" /><path d="M322.454016 888.970654m-51.5337 0a51.5337 51.5337 0 1 0 103.0674 0 51.5337 51.5337 0 1 0-103.0674 0Z" fill="#444444" /><path d="M689.11793 643.74965H345.562317c-18.974144 0-34.355459-15.381315-34.355459-34.355459v-51.5337h412.266531v51.5337c0 18.97312-15.381315 34.355459-34.355459 34.355459z" fill="#00D8A0" /></svg>